<svg width="20" height="20" viewBox="0 0 20 20" fill="none" xmlns="http://www.w3.org/2000/svg">
<path d="M1 17.9998V7.98522C1.00013 7.72261 1.06347 7.46389 1.18466 7.23091C1.30584 6.99794 1.48132 6.79755 1.69627 6.64668L9.53036 1.1485C9.66805 1.05185 9.83219 1 10.0004 1C10.1686 1 10.3328 1.05185 10.4705 1.1485L18.3037 6.64668C18.5187 6.79755 18.6942 6.99794 18.8153 7.23091C18.9365 7.46389 18.9999 7.72261 19 7.98522V17.9998C19 18.2168 18.9138 18.4249 18.7604 18.5783C18.6069 18.7318 18.3988 18.818 18.1818 18.818H13.8185C13.6015 18.818 13.3934 18.7318 13.2399 18.5783C13.0865 18.4249 13.0003 18.2168 13.0003 17.9998V13.3574C13.0003 13.1404 12.9141 12.9323 12.7606 12.7789C12.6072 12.6254 12.3991 12.5392 12.1821 12.5392H7.81791C7.60091 12.5392 7.39281 12.6254 7.23937 12.7789C7.08593 12.9323 6.99973 13.1404 6.99973 13.3574V17.9998C6.99973 18.2168 6.91353 18.4249 6.76009 18.5783C6.60665 18.7318 6.39854 18.818 6.18155 18.818H1.81818C1.60119 18.818 1.39308 18.7318 1.23964 18.5783C1.0862 18.4249 1 18.2168 1 17.9998Z" stroke="white" stroke-width="2"/>
</svg>
