<svg width="21" height="21" viewBox="0 0 21 21" fill="none" xmlns="http://www.w3.org/2000/svg">
<path d="M15.0571 1.05713V5.05713M15.0571 8.05713V12.0571M15.0571 15.0571V19.0571M19.0571 2.05713V4.05713C19.0571 4.32235 18.9518 4.5767 18.7642 4.76424C18.5767 4.95177 18.3223 5.05713 18.0571 5.05713H2.05713C1.79191 5.05713 1.53756 4.95177 1.35002 4.76424C1.16249 4.5767 1.05713 4.32235 1.05713 4.05713V2.05713C1.05713 1.79191 1.16249 1.53756 1.35002 1.35002C1.53756 1.16249 1.79191 1.05713 2.05713 1.05713L18 1C18.2652 1 18.5767 1.16249 18.7642 1.35002C18.9518 1.53756 19.0571 1.79191 19.0571 2.05713ZM19.0571 9.05713V11.0571C19.0571 11.3223 18.9518 11.5767 18.7642 11.7642C18.5767 11.9518 18.3223 12.0571 18.0571 12.0571H2.05713C1.79191 12.0571 1.53756 11.9518 1.35002 11.7642C1.16249 11.5767 1.05713 11.3223 1.05713 11.0571V9.05713C1.05713 8.79191 1.16249 8.53756 1.35002 8.35002C1.53756 8.16249 1.79191 8.05713 2.05713 8.05713H18.0571C18.3223 8.05713 18.5767 8.16249 18.7642 8.35002C18.9518 8.53756 19.0571 8.79191 19.0571 9.05713ZM19.0571 16.0571V18.0571C19.0571 18.3223 18.9518 18.5767 18.7642 18.7642C18.5767 18.9518 18.3223 19.0571 18.0571 19.0571H2.05713C1.79191 19.0571 1.53756 18.9518 1.35002 18.7642C1.16249 18.5767 1.05713 18.3223 1.05713 18.0571V16.0571C1.05713 15.7919 1.16249 15.5376 1.35002 15.35C1.53756 15.1625 1.79191 15.0571 2.05713 15.0571H18.0571C18.3223 15.0571 18.5767 15.1625 18.7642 15.35C18.9518 15.5376 19.0571 15.7919 19.0571 16.0571Z" stroke="white" stroke-width="2"/>
</svg>
