<svg width="11" height="11" viewBox="0 0 11 11" fill="none" xmlns="http://www.w3.org/2000/svg">
<path d="M10.2163 9.22128C10.3484 9.35337 10.4226 9.53253 10.4226 9.71933C10.4226 9.90613 10.3484 10.0853 10.2163 10.2174C10.0842 10.3495 9.90506 10.4237 9.71826 10.4237C9.53146 10.4237 9.3523 10.3495 9.22021 10.2174L5.5001 6.49609L1.77881 10.2162C1.64672 10.3483 1.46756 10.4225 1.28076 10.4225C1.09396 10.4225 0.914804 10.3483 0.782714 10.2162C0.650624 10.0841 0.576416 9.90496 0.576416 9.71816C0.576416 9.53136 0.650624 9.3522 0.782714 9.22011L4.504 5.5L0.783886 1.77871C0.651795 1.64662 0.577588 1.46746 0.577588 1.28066C0.577588 1.09386 0.651795 0.914703 0.783886 0.782613C0.915976 0.650523 1.09513 0.576315 1.28193 0.576315C1.46874 0.576315 1.64789 0.650523 1.77998 0.782613L5.5001 4.5039L9.22139 0.782027C9.35348 0.649937 9.53263 0.575729 9.71943 0.575729C9.90624 0.575729 10.0854 0.649937 10.2175 0.782027C10.3496 0.914117 10.4238 1.09327 10.4238 1.28007C10.4238 1.46688 10.3496 1.64603 10.2175 1.77812L6.49619 5.5L10.2163 9.22128Z" fill="white"/>
</svg>
