<svg width="20" height="20" viewBox="0 0 20 20" fill="none" xmlns="http://www.w3.org/2000/svg">
<path d="M1 4.2C1 3.08 1 2.52 1.218 2.092C1.40974 1.71569 1.71569 1.40974 2.092 1.218C2.52 1 3.08 1 4.2 1H4.8C5.92 1 6.48 1 6.908 1.218C7.28431 1.40974 7.59026 1.71569 7.782 2.092C8 2.52 8 3.08 8 4.2V4.8C8 5.92 8 6.48 7.782 6.908C7.59026 7.28431 7.28431 7.59026 6.908 7.782C6.48 8 5.92 8 4.8 8H4.2C3.08 8 2.52 8 2.092 7.782C1.71569 7.59026 1.40974 7.28431 1.218 6.908C1 6.48 1 5.92 1 4.8V4.2ZM12 4.2C12 3.08 12 2.52 12.218 2.092C12.4097 1.71569 12.7157 1.40974 13.092 1.218C13.52 1 14.08 1 15.2 1H15.8C16.92 1 17.48 1 17.908 1.218C18.2843 1.40974 18.5903 1.71569 18.782 2.092C19 2.52 19 3.08 19 4.2V4.8C19 5.92 19 6.48 18.782 6.908C18.5903 7.28431 18.2843 7.59026 17.908 7.782C17.48 8 16.92 8 15.8 8H15.2C14.08 8 13.52 8 13.092 7.782C12.7157 7.59026 12.4097 7.28431 12.218 6.908C12 6.48 12 5.92 12 4.8V4.2ZM1 15.2C1 14.08 1 13.52 1.218 13.092C1.40974 12.7157 1.71569 12.4097 2.092 12.218C2.52 12 3.08 12 4.2 12H4.8C5.92 12 6.48 12 6.908 12.218C7.28431 12.4097 7.59026 12.7157 7.782 13.092C8 13.52 8 14.08 8 15.2V15.8C8 16.92 8 17.48 7.782 17.908C7.59026 18.2843 7.28431 18.5903 6.908 18.782C6.48 19 5.92 19 4.8 19H4.2C3.08 19 2.52 19 2.092 18.782C1.71569 18.5903 1.40974 18.2843 1.218 17.908C1 17.48 1 16.92 1 15.8V15.2ZM12 15.2C12 14.08 12 13.52 12.218 13.092C12.4097 12.7157 12.7157 12.4097 13.092 12.218C13.52 12 14.08 12 15.2 12H15.8C16.92 12 17.48 12 17.908 12.218C18.2843 12.4097 18.5903 12.7157 18.782 13.092C19 13.52 19 14.08 19 15.2V15.8C19 16.92 19 17.48 18.782 17.908C18.5903 18.2843 18.2843 18.5903 17.908 18.782C17.48 19 16.92 19 15.8 19H15.2C14.08 19 13.52 19 13.092 18.782C12.7157 18.5903 12.4097 18.2843 12.218 17.908C12 17.48 12 16.92 12 15.8V15.2Z" stroke="white" stroke-width="2" stroke-linejoin="round"/>
</svg>
